<svg width="112" height="48" fill="none" xmlns="http://www.w3.org/2000/svg">
  <path d="M1.86 38.549v-2.914h14.88v2.914H1.86zm18.588 0v-2.914h14.88v2.914h-14.88zm18.588 0v-2.914h14.88v2.914h-14.88zm18.588 0v-2.914h14.88v2.914h-14.88zm18.588 0v-2.914h14.88v2.914h-14.88zM6.572 32L.837 16.004h4.836l2.077 6.851 1.519 5.332h.248l1.519-5.332 2.077-6.851h4.65L12.028 32H6.572zm16.356-7.254v-4.402h9.92v4.402h-9.92zm26.43 4.34h-.216c-.414.971-.992 1.767-1.736 2.387-.724.6-1.726.899-3.007.899-.889 0-1.705-.165-2.45-.496-.723-.33-1.353-.837-1.89-1.519-.517-.682-.93-1.55-1.24-2.604-.29-1.054-.434-2.304-.434-3.751s.144-2.697.434-3.751c.31-1.054.723-1.922 1.24-2.604.537-.682 1.167-1.188 1.89-1.519.745-.33 1.561-.496 2.45-.496.64 0 1.209.083 1.705.248.496.165.93.393 1.302.682.392.29.723.64.992 1.054.29.393.537.827.744 1.302h.217V9.06h4.588V32h-4.588v-2.914zm-2.975-.279c.806 0 1.498-.196 2.077-.589.6-.393.899-1.013.899-1.86v-4.712c0-.847-.3-1.467-.9-1.86-.578-.393-1.27-.589-2.076-.589-1.034 0-1.83.32-2.387.961-.558.62-.837 1.488-.837 2.604v2.48c0 1.116.279 1.994.837 2.635.558.62 1.353.93 2.387.93zm11.675-.372h3.689v-8.866h-3.69v-3.565h8.278v4.526h.217a9.454 9.454 0 0 1 .589-1.674 5.66 5.66 0 0 1 .992-1.457c.413-.434.909-.775 1.488-1.023.578-.248 1.26-.372 2.046-.372h1.519v4.216h-3.41c-1.137 0-1.995.341-2.573 1.023-.579.661-.868 1.478-.868 2.449v4.743h5.27V32H58.058v-3.565zM89.448 32c-.95 0-1.715-.238-2.293-.713-.58-.496-.92-1.199-1.023-2.108h-.155c-.29 1.054-.868 1.85-1.736 2.387-.848.537-1.891.806-3.131.806-1.55 0-2.8-.413-3.751-1.24-.93-.847-1.395-2.025-1.395-3.534 0-1.674.61-2.914 1.829-3.72 1.219-.806 3.007-1.209 5.363-1.209h2.573v-.806c0-.95-.228-1.664-.682-2.139-.434-.496-1.178-.744-2.232-.744-.972 0-1.757.186-2.356.558a5.46 5.46 0 0 0-1.55 1.457l-2.511-2.232c.537-.91 1.374-1.653 2.51-2.232 1.158-.6 2.636-.899 4.434-.899 2.19 0 3.895.506 5.115 1.519 1.24.992 1.86 2.5 1.86 4.526v7.006h1.767V32h-2.635zm-6.602-2.635c.806 0 1.488-.196 2.046-.589.558-.393.837-.961.837-1.705v-1.922h-2.45c-1.88 0-2.82.63-2.82 1.891v.62c0 .558.217.982.65 1.271.435.29 1.013.434 1.737.434zm28.166 4.247c0 1.695-.713 2.945-2.139 3.751-1.426.806-3.668 1.209-6.727 1.209-1.529 0-2.79-.093-3.781-.279-.992-.165-1.788-.413-2.387-.744-.58-.33-.992-.723-1.24-1.178a3.28 3.28 0 0 1-.341-1.488c0-.91.268-1.602.805-2.077.538-.455 1.292-.806 2.264-1.054v-.186c-.682-.207-1.23-.496-1.643-.868-.393-.393-.59-.94-.59-1.643 0-.785.259-1.364.775-1.736.538-.372 1.24-.661 2.109-.868v-.186c-.951-.455-1.695-1.095-2.233-1.922-.516-.827-.775-1.829-.775-3.007 0-.93.166-1.746.497-2.449A4.805 4.805 0 0 1 97 17.089c.62-.475 1.353-.837 2.2-1.085.848-.248 1.798-.372 2.852-.372 1.013 0 1.953.114 2.821.341v-.868c0-.62.217-1.137.651-1.55.434-.413 1.034-.62 1.798-.62h2.821v3.348H106.3v.279c.868.455 1.54 1.085 2.015 1.891.496.785.744 1.746.744 2.883 0 .93-.165 1.746-.496 2.449a5.002 5.002 0 0 1-1.426 1.798c-.62.475-1.364.837-2.232 1.085-.847.248-1.798.372-2.852.372-.475 0-.93-.02-1.364-.062a10.96 10.96 0 0 1-1.24-.248 2.17 2.17 0 0 0-.588.465c-.145.186-.218.424-.218.713 0 .248.063.444.186.589.125.145.29.258.497.341.227.062.485.103.774.124.29.02.589.031.899.031h3.658c1.137 0 2.108.114 2.914.341.806.227 1.468.548 1.984.961.517.413.889.899 1.116 1.457.228.558.341 1.178.341 1.86zm-4.34.341c0-.413-.165-.744-.496-.992-.33-.227-.961-.341-1.891-.341h-5.486c-.414.351-.62.785-.62 1.302 0 .496.206.899.62 1.209.433.33 1.157.496 2.169.496h2.697c1.054 0 1.819-.145 2.294-.434.476-.29.713-.703.713-1.24zm-4.619-9.827c.93 0 1.602-.227 2.015-.682.434-.455.651-1.033.651-1.736v-.744c0-.703-.217-1.281-.651-1.736-.413-.455-1.085-.682-2.015-.682-.909 0-1.57.227-1.984.682-.413.455-.62 1.033-.62 1.736v.744c0 .703.207 1.281.62 1.736.414.455 1.075.682 1.984.682z" fill="#FFFFFF" />
</svg>
