<svg fill="none" xmlns="http://www.w3.org/2000/svg">
  <path fill-rule="evenodd" clip-rule="evenodd" d="M160.613 32.335l24.48-22.25 31.931 4.816 39.509 91.62 4.601 1.148 2.632-4.272-25.526-59.193 14.411-18.272 31.511 1.08 50.489 111.168 15.712 85.642-28.556 73.065L416 477.635 276.853 542l-84.592-184.451-91.158-20.69-76.415-58.811L0 230.263l47.998-80.611 30.387 61.194-11.413 21.441 34.525 25.101 9.86 19.091 4.759.463 2.296-3.972-84.365-169.126 24.71-23.429 34.055 2.056 48.762 110.808 4.836.875 2.374-4.053-70.81-160.91L106.698 0l33.98 5.046 58.721 140.61 5.111 1.436 2.158-4.477-46.055-110.28z" fill="#FFFFFF"/>
</svg>

