<svg width="80" height="80" viewBox="0 0 80 80" fill="none" xmlns="http://www.w3.org/2000/svg">
<path fill-rule="evenodd" clip-rule="evenodd" d="M41.1768 22L44.4442 24.0807L44.4006 25.9098L46.4727 25.2288L49.5604 27.2048L49.5379 29.0386L50.6072 28.478L53.9442 30.1063L54.0156 40.4476L52.3082 47.4815L48.1031 51.6266L48.1312 58.1521L34.8671 58.3406L34.6911 51.9649L29.099 47.7776L25.2906 40.7318L25 35.6817L31.5837 31.0443L31.4384 27.5465L35.175 26.2304L36.9562 27.1576L36.9733 23.6464L41.1768 22ZM31.6634 32.9627L26.6632 36.4848L26.8816 40.2803L30.3504 46.698L36.2916 51.1467L36.4535 56.7052L46.3512 56.5612L46.4207 51.0182L50.8478 46.6543L52.3999 40.26L52.3368 31.1182L50.6333 30.2869L49.5153 30.873L49.454 35.8582L48.6122 36.4297L47.84 35.8246L47.9353 28.0813L46.2484 27.0018L44.3598 27.6224L44.141 36.8045L43.3515 37.4686L42.5268 36.7821L42.8087 24.953L41.0017 23.8023L38.5822 24.7499L38.516 38.365L37.7246 38.9282L36.9017 38.3664L36.9474 28.973L35.0508 27.9856L33.1011 28.6724L33.718 43.2778L32.9484 43.832L32.107 43.3537L32.0203 41.5356L30.2021 38.3808L31.8357 37.1089L31.6634 32.9627Z" fill="#212229"/>
<path d="M74 36L78 40M78 40L74 44M78 40L65 40" stroke="#686A77" stroke-width="2" stroke-linecap="square"/>
<path d="M6 44L2 40M2 40L6 36M2 40L15 40" stroke="#686A77" stroke-width="2" stroke-linecap="square"/>
<path d="M44 74L40 78M40 78L36 74M40 78L40 65" stroke="#686A77" stroke-width="2" stroke-linecap="square"/>
<path d="M36 6L40 2M40 2L44 6M40 2L40 15" stroke="#686A77" stroke-width="2" stroke-linecap="square"/>
</svg>
