<svg width="1440" height="66" viewBox="0 0 1440 66" xmlns="http://www.w3.org/2000/svg">
  <path d="M893.5 49L541 24L164.5 47.5L0 33.0308V65.0615H1440V33L1362 41.0308L1175.5 32.5L893.5 49Z" fill="white" />
  <path d="M893.5 41.0308L541 16.0308L164.5 39.5308L0 25.0615V33.0308L164.5 47.5L541 24L893.5 49L1175.5 32.5L1362 41.0308L1440 33V25.0308L1362 33.0615L1175.5 24.5308L893.5 41.0308Z" fill="#092C73" />
  <path d="M893.5 41.0308L541 16.0308L164.5 39.5308L0 25.0615V9.03076L164.5 23.5L541 0L893.5 25L1175.5 8.5L1362 17.0308L1440 9V25.0308L1362 33.0615L1175.5 24.5308L893.5 41.0308Z" fill="#ADB0BD" />
</svg>
