<svg width="24" height="24" viewBox="0 0 24 24" fill="none" xmlns="http://www.w3.org/2000/svg">
<path d="M12 2.2475C6.475 2.2475 2 6.725 2 12.2475C2 16.6667 4.865 20.4142 8.8375 21.735C9.3375 21.8292 9.52083 21.52 9.52083 21.2542C9.52083 21.0167 9.5125 20.3875 9.50833 19.5542C6.72667 20.1575 6.14 18.2125 6.14 18.2125C5.685 17.0583 5.0275 16.75 5.0275 16.75C4.12167 16.13 5.0975 16.1425 5.0975 16.1425C6.10167 16.2125 6.62917 17.1725 6.62917 17.1725C7.52083 18.7017 8.97 18.26 9.54167 18.0042C9.63167 17.3575 9.88917 16.9167 10.175 16.6667C7.95417 16.4167 5.62 15.5567 5.62 11.725C5.62 10.6333 6.0075 9.74166 6.64917 9.04166C6.53667 8.78916 6.19917 7.7725 6.73667 6.395C6.73667 6.395 7.57417 6.12666 9.48667 7.42C10.2867 7.1975 11.1367 7.0875 11.9867 7.0825C12.8367 7.0875 13.6867 7.1975 14.4867 7.42C16.3867 6.12666 17.2242 6.395 17.2242 6.395C17.7617 7.7725 17.4242 8.78916 17.3242 9.04166C17.9617 9.74166 18.3492 10.6333 18.3492 11.725C18.3492 15.5667 16.0117 16.4125 13.7867 16.6583C14.1367 16.9583 14.4617 17.5717 14.4617 18.5083C14.4617 19.8467 14.4492 20.9217 14.4492 21.2467C14.4492 21.5092 14.6242 21.8217 15.1367 21.7217C19.1375 20.41 22 16.66 22 12.2475C22 6.725 17.5225 2.2475 12 2.2475Z" fill="white"/>
</svg>
