<?xml version="1.0" standalone="no"?>
<!DOCTYPE svg PUBLIC "-//W3C//DTD SVG 20010904//EN"
 "http://www.w3.org/TR/2001/REC-SVG-20010904/DTD/svg10.dtd">
<svg version="1.0" xmlns="http://www.w3.org/2000/svg"
 width="700.000000pt" height="700.000000pt" viewBox="0 0 700.000000 700.000000"
 preserveAspectRatio="xMidYMid meet">
<metadata>
Created by potrace 1.14, written by Peter Selinger 2001-2017
</metadata>
<g transform="translate(0.000000,700.000000) scale(0.100000,-0.100000)"
fill="#000000" stroke="none">
<path d="M1747 6994 c-1 -1 -136 -4 -299 -6 -164 -3 -301 -8 -305 -11 -3 -4
19 -116 51 -250 32 -133 59 -249 61 -257 40 -182 268 -1098 320 -1285 38 -138
39 -140 54 -195 23 -87 53 -191 116 -405 37 -126 73 -250 80 -275 139 -482
411 -1291 590 -1755 73 -190 113 -276 165 -358 73 -116 146 -167 269 -185 51
-7 800 -9 1377 -3 l122 1 92 217 c51 120 99 234 107 253 8 19 19 43 24 52 5
10 9 22 9 28 0 6 9 29 19 53 30 66 134 338 197 512 14 39 29 79 35 90 20 44
181 504 258 740 110 336 376 1220 396 1319 3 10 20 73 39 140 46 161 117 417
121 438 2 9 13 50 24 90 16 57 74 283 107 418 25 102 34 141 38 161 3 13 10
44 17 69 6 25 13 54 15 65 3 11 5 50 5 87 -1 111 -54 193 -155 239 -38 17 -69
18 -486 13 -473 -5 -690 -10 -695 -16 -3 -3 -5 -9 -34 -193 -12 -71 -24 -141
-26 -155 -3 -14 -17 -88 -30 -165 -14 -77 -27 -151 -30 -165 -3 -14 -9 -50
-15 -80 -6 -30 -12 -66 -15 -80 -3 -14 -12 -59 -20 -100 -35 -177 -87 -414
-127 -580 -11 -47 -22 -96 -24 -110 -3 -14 -7 -33 -10 -42 -3 -9 -7 -27 -9
-40 -10 -52 -19 -89 -52 -228 -53 -223 -97 -401 -138 -555 -21 -77 -38 -144
-40 -150 -1 -5 -7 -30 -14 -55 -7 -25 -15 -53 -17 -63 -1 -10 -22 -86 -44
-170 -23 -83 -52 -192 -65 -242 -13 -49 -49 -184 -80 -300 -31 -115 -58 -218
-60 -228 -2 -10 -20 -77 -40 -148 -19 -71 -35 -136 -35 -144 0 -12 -16 -15
-77 -15 l-78 0 -25 108 c-13 59 -25 112 -26 117 -1 6 -9 39 -18 75 -9 36 -18
74 -21 85 -22 96 -57 245 -75 315 -12 47 -24 94 -26 105 -2 11 -36 148 -75
305 -39 157 -72 292 -74 300 -16 74 -48 209 -101 430 -14 58 -28 114 -30 125
-2 11 -18 76 -34 145 -46 192 -151 642 -156 670 -3 14 -9 41 -14 60 -8 31
-151 667 -164 730 -3 14 -17 81 -31 150 -14 69 -31 138 -37 155 -21 51 -76
103 -136 127 -55 22 -69 23 -350 23 -161 1 -294 0 -295 -1z"/>
<path d="M1275 738 c1 -367 5 -538 14 -572 22 -90 69 -132 179 -155 38 -8 655
-11 2220 -11 l2168 0 3 362 c7 775 8 726 -28 801 -14 29 -35 51 -64 68 l-42
24 -2226 3 -2225 2 1 -522z"/>
</g>
</svg>
